<svg id="Capa_1" enable-background="new 0 0 511.017 511.017" height="512" viewBox="0 0 511.017 511.017" width="512" xmlns="http://www.w3.org/2000/svg"><g><g><g><path d="m200.491 453.982v44.24c0 3.341-2.709 6.05-6.05 6.05h-124.01c-3.341 0-6.05-2.709-6.05-6.05v-40.45l.05-.48c-29.31-3.73-51.98-28.76-51.98-59.08v-102.92c0-7.39 5.99-13.38 13.38-13.38h12.04c5.33 0 10.31 1.53 14.52 4.17v-87.29c0-6.35 2.57-12.09 6.73-16.24 4.15-4.16 9.9-6.73 16.24-6.73 12.68 0 22.96 10.28 22.96 22.97v-23.22c0-6.34 2.57-12.08 6.72-16.23 4.16-4.16 9.9-6.73 16.24-6.73 12.69 0 22.97 10.28 22.97 22.96v32.74c0-6.34 2.57-12.08 6.73-16.23 4.23-4.24 10.111-6.828 16.596-6.727 12.629.196 22.604 10.856 22.604 23.486v9.591c0-12.69 10.28-22.97 22.96-22.97 6.34 0 12.08 2.57 16.24 6.73 4.15 4.15 6.72 9.89 6.72 16.24v67.65 115.8c0 23.71-14.77 43.98-35.61 52.1z" fill="#ffe5c2"/></g><g><g id="XMLID_382_"><g><path d="m324.045 73.315c0-6.34 2.57-12.08 6.73-16.23 4.237-4.237 10.114-6.825 16.594-6.727 12.628.19 22.606 10.847 22.606 23.476v409.444c0 8.554-6.934 15.488-15.488 15.488h-140.744c-8.554 0-15.488-6.934-15.488-15.488v-170.613c-28.68 0-51.93-23.25-51.93-51.93v-110.56c0-7.39 5.99-13.38 13.38-13.38h12.04c5.33 0 10.31 1.53 14.52 4.18v-87.3c0-6.34 2.57-12.08 6.73-16.23 4.15-4.16 9.9-6.73 16.24-6.73 12.68 0 22.96 10.28 22.96 22.96v-23.21c0-6.34 2.57-12.08 6.72-16.24 4.16-4.16 9.9-6.73 16.24-6.73 12.69 0 22.97 10.29 22.97 22.97v32.74c0-6.34 2.57-12.09 6.73-16.24 4.15-4.16 9.89-6.73 16.23-6.73 12.68 0 22.96 10.28 22.96 22.97z" fill="#eb9c8d"/></g><path d="m199.115 230.405v82.26h-.86c-28.68 0-51.93-23.25-51.93-51.93v-110.56c0-7.39 5.99-13.38 13.38-13.38h12.04c5.33 0 10.31 1.53 14.52 4.18 7.72 4.83 12.85 13.41 12.85 23.19z" fill="#eb9c8d"/><path d="m78.636 284.2v-108.142c-1.07-.153-2.163-.236-3.276-.236-6.34 0-12.09 2.57-16.24 6.73-4.16 4.15-6.73 9.89-6.73 16.24v85.408z" fill="#fed2a4"/><path d="m65.241 309.282v66.23l-.67 81.8c-.05-.01-.09-.01-.14-.02-29.31-3.73-51.98-28.76-51.98-59.08v-102.92c0-7.39 5.99-13.38 13.38-13.38h12.04c5.33 0 10.31 1.53 14.52 4.17 7.72 4.84 12.85 13.42 12.85 23.2z" fill="#ffe5c2"/><g><path d="m200.491 487.424v10.798c0 3.341-2.709 6.05-6.05 6.05h-124.01c-3.341 0-6.05-2.709-6.05-6.05v-40.45l.05-.48c-29.31-3.73-51.98-28.76-51.98-59.08v-102.92c0-7.39 5.99-13.38 13.38-13.38h8.38v102.452c0 27.356 18.454 50.405 43.589 57.39 4.942 1.373 8.385 5.835 8.379 10.964l-.026 23.739c-.007 6.16 4.99 11.153 11.15 11.143z" fill="#fed2a4"/></g><path d="m253.154 487.786c-15.742 0-28.504-12.762-28.504-28.504v-140.238c0-8.991-5.928-16.91-14.559-19.426-21.593-6.295-37.371-26.236-37.371-49.861v-110.56c0-.806.084-1.591.22-2.358-.398-.017-.793-.043-1.195-.043h-12.04c-7.39 0-13.38 5.99-13.38 13.38v110.56c0 28.68 23.25 51.93 51.93 51.93v170.612c0 8.554 6.934 15.488 15.488 15.488h140.744c6.985 0 12.885-4.625 14.816-10.979h-116.149z" fill="#d78878"/><g><path d="m461.305 454.225v44.24c0 3.341-2.709 6.05-6.05 6.05h-124.01c-3.341 0-6.05-2.709-6.05-6.05v-40.45l.05-.48c-29.31-3.73-51.98-28.76-51.98-59.08v-102.92c0-7.39 5.99-13.38 13.38-13.38h12.04c5.33 0 10.31 1.53 14.52 4.17v-87.29c0-6.35 2.57-12.09 6.73-16.24 4.15-4.16 9.9-6.73 16.24-6.73 12.68 0 22.96 10.28 22.96 22.97v-23.22c0-6.34 2.57-12.08 6.72-16.23 4.16-4.16 9.9-6.73 16.24-6.73 12.69 0 22.97 10.28 22.97 22.96v32.74c0-6.34 2.57-12.08 6.73-16.23 4.23-4.24 10.111-6.828 16.596-6.727 12.629.196 22.604 10.856 22.604 23.486v9.591c0-12.69 10.28-22.97 22.96-22.97 6.34 0 12.08 2.57 16.24 6.73 4.15 4.15 6.72 9.89 6.72 16.24v67.65 115.8c0 23.71-14.77 43.98-35.61 52.1z" fill="#ffdfcf"/></g><path d="m63.686 367.588c11.904 0 21.554-9.65 21.554-21.554v-36.752c0-16.413-8.309-31.42-22.225-40.144-3.341-2.096-6.911-3.751-10.625-4.947v21.891 81.506z" fill="#fed2a4"/><path d="m196.745 214.195c12.355 0 22.37-10.016 22.37-22.37v-27.659c0-16.424-8.315-31.432-22.196-40.116-3.349-2.108-6.928-3.771-10.654-4.973v21.899c-.069-.043-.171 34.955-.262 73.219z" fill="#d78878"/><path d="m330.82 357.122c8.414 0 15.235-6.821 15.235-15.235v-32.363c0-16.413-8.309-31.42-22.225-40.144-3.341-2.096-6.911-3.751-10.625-4.947v21.891 70.797h17.615z" fill="#ffcebf"/><g><g id="XMLID_383_"><g><path d="m339.451 176.302c-1.07-.153-2.163-.236-3.276-.236-6.34 0-12.09 2.57-16.24 6.73-4.16 4.15-6.73 9.89-6.73 16.24v87.29c-.178-.112-.365-.209-.546-.317v12.699h26.791v-122.406z" fill="#ffcebf"/><path d="m326.055 309.525v66.23l-.67 81.8c-.05-.01-.09-.01-.14-.02-29.31-3.73-51.98-28.76-51.98-59.08v-102.92c0-7.39 5.99-13.38 13.38-13.38h12.04c5.33 0 10.31 1.53 14.52 4.17 7.72 4.84 12.85 13.42 12.85 23.2z" fill="#ffdfcf"/><g><path d="m461.305 487.667v10.798c0 3.341-2.709 6.05-6.05 6.05h-124.01c-3.341 0-6.05-2.709-6.05-6.05v-40.45l.05-.48c-29.31-3.73-51.98-28.76-51.98-59.08v-102.92c0-7.39 5.99-13.38 13.38-13.38h8.38v102.452c0 27.356 18.454 50.405 43.589 57.39 4.942 1.373 8.385 5.835 8.379 10.964l-.019 17.362c-.01 9.544 7.721 17.288 17.265 17.293z" fill="#ffcebf"/></g></g></g></g></g></g><path d="m385.924 153.179c-1.246-.209-2.524-.323-3.829-.323-6.34 0-12.08 2.57-16.24 6.73-4.15 4.15-6.72 9.89-6.72 16.23v23.22c0-.027-.002-.053-.002-.08v99.752c14.796 0 26.791-11.995 26.791-26.791z" fill="#ffcebf"/><path d="m125.142 152.935c-1.246-.209-2.524-.323-3.829-.323-6.34 0-12.08 2.57-16.24 6.73-4.15 4.15-6.72 9.89-6.72 16.23v23.22c0-.027-.002-.053-.002-.08v99.752c14.796 0 26.791-11.995 26.791-26.791z" fill="#fed2a4"/><path d="m405.116 298.708c14.796 0 26.791-11.995 26.791-26.791v-85.987c-1.144-.2-2.318-.314-3.516-.332-6.485-.101-12.366 2.487-16.596 6.727-3.839 3.83-6.319 9.016-6.679 14.777z" fill="#ffcebf"/><path d="m477.99 196.066c-1.311-.233-2.657-.361-4.034-.361-11.657 0-21.279 8.691-22.757 19.953v84.461c14.796 0 26.791-11.995 26.791-26.791z" fill="#ffcebf"/><g fill="#d78878"><path d="m204.977 136.795.006-105.687c-4.635.869-8.791 3.132-11.988 6.337-4.16 4.15-6.73 9.89-6.73 16.23v83.12z"/><g><path d="m262.681 8.751c-2.357-.817-4.891-1.256-7.526-1.256-6.34 0-12.08 2.57-16.24 6.73-4.15 4.16-6.72 9.9-6.72 16.24v23.21c0-.107-.007-.213-.008-.321v94.218h3.336c14.995 0 27.152-12.156 27.152-27.152z"/><path d="m278.197 146.832h.934c14.995 0 27.152-12.156 27.152-27.152l.007-78.852c-1.671-.387-3.415-.592-5.204-.592-6.34 0-12.08 2.57-16.23 6.73-3.777 3.768-6.236 8.857-6.658 14.507v85.359z"/><path d="m347.369 50.358c-6.48-.098-12.357 2.49-16.594 6.727-3.7 3.691-6.137 8.64-6.632 14.15v74.449c14.995 0 27.152-12.156 27.152-27.152l.007-67.768c-1.273-.247-2.59-.386-3.933-.406z"/></g></g></g><g><path d="m332.831 450.519c-28.71 0-52.067-23.357-52.067-52.067v-102.916c0-3.243 2.639-5.881 5.882-5.881h12.038c10.956 0 19.869 8.913 19.869 19.869v66.236c0 4.142 3.358 7.5 7.5 7.5s7.5-3.358 7.5-7.5v-66.236c0-10.88-5.012-20.61-12.845-27.009v-34.055c0-4.142-3.358-7.5-7.5-7.5s-7.5 3.358-7.5 7.5v26.906c-2.27-.466-4.619-.711-7.024-.711h-12.038c-11.514 0-20.882 9.367-20.882 20.881v102.917c0 31.775 22.219 58.439 51.931 65.323v39.741c0 4.142 3.358 7.5 7.5 7.5s7.5-3.358 7.5-7.5v-38.001c.046 0 .091.003.137.003 4.142 0 7.5-3.358 7.5-7.5s-3.359-7.5-7.501-7.5z"/><path d="m473.955 188.207c-7.09 0-13.617 2.442-18.799 6.519-5.049-9.862-15.31-16.632-27.129-16.632-5.642 0-10.927 1.547-15.464 4.232v-6.506c0-16.797-13.666-30.463-30.464-30.463-15.807 0-28.837 12.103-30.32 27.527-4.568-2.737-9.906-4.315-15.608-4.315-16.798 0-30.464 13.666-30.464 30.463v17.465c0 4.142 3.358 7.5 7.5 7.5s7.5-3.358 7.5-7.5v-17.465c0-8.526 6.937-15.463 15.464-15.463s15.464 6.937 15.464 15.463v87.298c0 4.142 3.358 7.5 7.5 7.5s7.5-3.358 7.5-7.5v-110.511c0-8.526 6.937-15.463 15.464-15.463s15.464 6.937 15.464 15.463v110.511c0 4.142 3.358 7.5 7.5 7.5s7.5-3.358 7.5-7.5v-77.772c0-8.527 6.937-15.464 15.464-15.464s15.464 6.937 15.464 15.464v77.772c0 4.142 3.358 7.5 7.5 7.5s7.5-3.358 7.5-7.5v-67.66c0-8.527 6.937-15.464 15.464-15.464s15.464 6.937 15.464 15.464v17.394c0 4.142 3.358 7.5 7.5 7.5s7.5-3.358 7.5-7.5v-17.394c-.001-16.797-13.667-30.463-30.464-30.463z"/><path d="m496.918 260.527c-4.142 0-7.5 3.358-7.5 7.5v134.099c0 26.684-21.709 48.394-48.394 48.394-4.142 0-7.5 3.358-7.5 7.5s3.358 7.5 7.5 7.5c4.378 0 8.654-.447 12.785-1.296v39.293c0 4.142 3.358 7.5 7.5 7.5s7.5-3.358 7.5-7.5v-44.425c21.065-10.316 35.609-31.972 35.609-56.966v-134.099c0-4.142-3.357-7.5-7.5-7.5z"/><path d="m114.167 146.643c-11.832 3.552-20.344 14.109-21.539 26.249-4.571-2.742-9.915-4.323-15.623-4.323-16.798 0-30.464 13.666-30.464 30.464v76.333c-2.27-.466-4.619-.711-7.025-.711h-12.037c-11.514 0-20.881 9.367-20.881 20.881v102.917c0 31.775 22.219 58.44 51.931 65.323v39.741c0 4.142 3.358 7.5 7.5 7.5s7.5-3.358 7.5-7.5v-38.001c.046 0 .091.003.136.003 4.142 0 7.5-3.358 7.5-7.5s-3.358-7.5-7.5-7.5c-28.71 0-52.067-23.357-52.067-52.067v-102.916c0-3.243 2.638-5.881 5.881-5.881h12.038c10.956 0 19.869 8.913 19.869 19.869v66.236c0 4.142 3.358 7.5 7.5 7.5s7.5-3.358 7.5-7.5v-66.236c0-10.88-5.011-20.609-12.844-27.009v-83.482c0-8.527 6.937-15.464 15.464-15.464s15.464 6.937 15.464 15.464v87.298c0 4.142 3.358 7.5 7.5 7.5s7.5-3.358 7.5-7.5v-110.511c0-6.774 4.527-12.865 11.01-14.81 3.967-1.191 6.218-5.373 5.027-9.34s-5.369-6.214-9.34-5.027z"/><path d="m270.623 30.464v110.51c0 4.142 3.358 7.5 7.5 7.5s7.5-3.358 7.5-7.5v-77.772c0-8.527 6.937-15.464 15.464-15.464s15.464 6.937 15.464 15.464v77.772c0 4.142 3.358 7.5 7.5 7.5s7.5-3.358 7.5-7.5v-67.66c0-8.527 6.937-15.464 15.464-15.464s15.464 6.937 15.464 15.464v50.958c0 4.142 3.358 7.5 7.5 7.5s7.5-3.358 7.5-7.5v-50.958c0-16.798-13.666-30.464-30.464-30.464-7.09 0-13.617 2.442-18.799 6.519-5.049-9.862-15.31-16.632-27.129-16.632-5.642 0-10.927 1.547-15.464 4.232v-6.506c0-16.797-13.666-30.463-30.464-30.463-15.807 0-28.837 12.103-30.32 27.527-4.568-2.737-9.907-4.315-15.608-4.315-16.798 0-30.464 13.666-30.464 30.464v76.333c-2.27-.466-4.619-.711-7.025-.711h-12.037c-11.514 0-20.882 9.368-20.882 20.882v110.552c0 30.228 22.691 55.24 51.931 58.941v32.64c0 4.142 3.358 7.5 7.5 7.5s7.5-3.358 7.5-7.5v-32.15h.137c4.142 0 7.5-3.358 7.5-7.5s-3.358-7.5-7.5-7.5h-7.637c-24.499 0-44.431-19.932-44.431-44.431v-110.552c0-3.243 2.639-5.882 5.882-5.882h12.037c10.956 0 19.87 8.913 19.87 19.869v66.236c0 4.142 3.358 7.5 7.5 7.5s7.5-3.358 7.5-7.5v-66.236c0-10.88-5.012-20.61-12.845-27.009v-83.482c0-8.527 6.937-15.464 15.464-15.464s15.464 6.937 15.464 15.464v87.298c0 4.142 3.358 7.5 7.5 7.5s7.5-3.358 7.5-7.5v-110.51c0-8.527 6.937-15.464 15.464-15.464s15.464 6.937 15.464 15.464z"/><path d="m198.254 376.775c-4.142 0-7.5 3.358-7.5 7.5v114.485c0 4.142 3.358 7.5 7.5 7.5s7.5-3.358 7.5-7.5v-114.485c0-4.142-3.358-7.5-7.5-7.5z"/></g></g></svg>